<svg xmlns="http://www.w3.org/2000/svg" width="1100" height="460" viewBox="0 0 1100 460" role="img" aria-label="AI analysis integration loop">
  <defs>
    <radialGradient id="halo" cx=".5" cy=".5" r=".65">
      <stop stop-color="#14b8d4" stop-opacity=".28"/>
      <stop offset="1" stop-color="#14b8d4" stop-opacity="0"/>
    </radialGradient>
    <linearGradient id="blue" x1="0" x2="1"><stop stop-color="#10233f"/><stop offset="1" stop-color="#0c5a70"/></linearGradient>
  </defs>
  <rect width="1100" height="460" rx="30" fill="#0b1220"/>
  <circle cx="550" cy="230" r="196" fill="url(#halo)"/>
  <g font-family="Segoe UI, Arial" text-anchor="middle">
    <text x="550" y="62" font-size="30" font-weight="800" fill="#ffffff">Intelligent Analysis Interface</text>
    <text x="550" y="92" font-size="15" fill="#9fb6d1">A structured handoff layer for copilots, reporting agents, and workflow assistants.</text>
  </g>
  <g font-family="Segoe UI, Arial">
    <rect x="92" y="174" width="210" height="112" rx="22" fill="#111d33" stroke="#31496d"/>
    <text x="197" y="218" text-anchor="middle" font-size="18" font-weight="800" fill="#ffffff">summary.json</text>
    <text x="197" y="248" text-anchor="middle" font-size="13" fill="#9fb6d1">computed facts</text>
    <rect x="445" y="150" width="210" height="160" rx="26" fill="url(#blue)" stroke="#10b9d4"/>
    <text x="550" y="210" text-anchor="middle" font-size="21" font-weight="800" fill="#ffffff">Analysis Context</text>
    <text x="550" y="242" text-anchor="middle" font-size="13" fill="#cce6f5">sections, signals, guardrails</text>
    <rect x="798" y="174" width="210" height="112" rx="22" fill="#111d33" stroke="#31496d"/>
    <text x="903" y="218" text-anchor="middle" font-size="18" font-weight="800" fill="#ffffff">Agent Output</text>
    <text x="903" y="248" text-anchor="middle" font-size="13" fill="#9fb6d1">findings + actions</text>
    <path d="M304 230 H430" stroke="#10b9d4" stroke-width="5" stroke-linecap="round"/>
    <path d="M670 230 H790" stroke="#10b9d4" stroke-width="5" stroke-linecap="round"/>
    <path d="M903 294 C884 380 220 380 197 294" fill="none" stroke="#26b981" stroke-width="5" stroke-dasharray="10 12"/>
    <text x="550" y="395" text-anchor="middle" font-size="15" fill="#26b981">review results can feed reports, alerts, and next-run checks</text>
  </g>
</svg>
