<svg xmlns="http://www.w3.org/2000/svg" width="1100" height="680" viewBox="0 0 1100 680" role="img" aria-label="Factory operations dashboard preview">
  <defs>
    <linearGradient id="bg" x1="0" y1="0" x2="1" y2="1">
      <stop stop-color="#0b1d36"/>
      <stop offset=".55" stop-color="#123b61"/>
      <stop offset="1" stop-color="#0c5a70"/>
    </linearGradient>
    <linearGradient id="accent" x1="0" x2="1">
      <stop stop-color="#11c5df"/>
      <stop offset="1" stop-color="#0f7dd7"/>
    </linearGradient>
    <filter id="shadow"><feDropShadow dx="0" dy="16" stdDeviation="14" flood-opacity=".22"/></filter>
  </defs>
  <rect width="1100" height="680" rx="34" fill="url(#bg)"/>
  <rect x="40" y="40" width="1020" height="600" rx="28" fill="#f7fbff" filter="url(#shadow)"/>
  <rect x="40" y="40" width="1020" height="86" rx="28" fill="#10233f"/>
  <text x="78" y="94" font-family="Segoe UI, Arial" font-size="31" font-weight="800" fill="#5edbff">Factory Excel Ops Dashboard</text>
  <text x="880" y="92" font-family="Segoe UI, Arial" font-size="15" fill="#bed0e6">local dashboard</text>
  <rect x="78" y="156" width="258" height="120" rx="18" fill="#ffffff" stroke="#d8e1ee"/>
  <rect x="360" y="156" width="258" height="120" rx="18" fill="#ffffff" stroke="#d8e1ee"/>
  <rect x="642" y="156" width="258" height="120" rx="18" fill="#ffffff" stroke="#d8e1ee"/>
  <text x="104" y="194" font-family="Segoe UI, Arial" font-size="17" font-weight="700" fill="#64748b">Inventory Items</text>
  <text x="104" y="246" font-family="Segoe UI, Arial" font-size="46" font-weight="800" fill="#0f7dd7">1,284</text>
  <text x="386" y="194" font-family="Segoe UI, Arial" font-size="17" font-weight="700" fill="#64748b">Open Orders</text>
  <text x="386" y="246" font-family="Segoe UI, Arial" font-size="46" font-weight="800" fill="#26b981">316</text>
  <text x="668" y="194" font-family="Segoe UI, Arial" font-size="17" font-weight="700" fill="#64748b">Shipment Qty</text>
  <text x="668" y="246" font-family="Segoe UI, Arial" font-size="46" font-weight="800" fill="#f59e0b">42,800</text>
  <rect x="78" y="310" width="470" height="270" rx="22" fill="#ffffff" stroke="#d8e1ee"/>
  <text x="108" y="354" font-family="Segoe UI, Arial" font-size="22" font-weight="800" fill="#142033">Risk Pulse</text>
  <circle cx="202" cy="456" r="72" fill="none" stroke="#e5edf6" stroke-width="24"/>
  <path d="M202 384 A72 72 0 1 1 136 485" fill="none" stroke="#ef476f" stroke-width="24" stroke-linecap="round"/>
  <path d="M136 485 A72 72 0 0 1 178 389" fill="none" stroke="#26b981" stroke-width="24" stroke-linecap="round"/>
  <text x="202" y="464" text-anchor="middle" font-family="Segoe UI, Arial" font-size="34" font-weight="800" fill="#142033">87</text>
  <text x="302" y="426" font-family="Segoe UI, Arial" font-size="16" fill="#64748b">Shortage</text>
  <rect x="302" y="444" width="180" height="16" rx="8" fill="#e5edf6"/><rect x="302" y="444" width="126" height="16" rx="8" fill="#ef476f"/>
  <text x="302" y="486" font-family="Segoe UI, Arial" font-size="16" fill="#64748b">Healthy</text>
  <rect x="302" y="504" width="180" height="16" rx="8" fill="#e5edf6"/><rect x="302" y="504" width="92" height="16" rx="8" fill="#26b981"/>
  <rect x="582" y="310" width="438" height="270" rx="22" fill="#ffffff" stroke="#d8e1ee"/>
  <text x="612" y="354" font-family="Segoe UI, Arial" font-size="22" font-weight="800" fill="#142033">Source Type Mix</text>
  <g font-family="Segoe UI, Arial" font-size="14" fill="#64748b">
    <text x="612" y="402">inventory</text><rect x="720" y="386" width="238" height="18" rx="9" fill="url(#accent)"/>
    <text x="612" y="442">sales order</text><rect x="720" y="426" width="174" height="18" rx="9" fill="#26b981"/>
    <text x="612" y="482">shipment</text><rect x="720" y="466" width="122" height="18" rx="9" fill="#f59e0b"/>
    <text x="612" y="522">production</text><rect x="720" y="506" width="196" height="18" rx="9" fill="#8b5cf6"/>
  </g>
</svg>
